<?xml version="1.0" encoding="UTF-8" standalone="no"?>
<svg width="10px" height="10px" viewBox="0 0 10 10" version="1.1" xmlns="http://www.w3.org/2000/svg" xmlns:xlink="http://www.w3.org/1999/xlink">
    <!-- Generator: Sketch 3.8.1 (29687) - http://www.bohemiancoding.com/sketch -->
    <title>Spinner</title>
    <desc>Created with Sketch.</desc>
    <defs></defs>
    <g id="Page-1" stroke="none" stroke-width="1" fill="none" fill-rule="evenodd">
        <g id="StatusIcons-(Black)" transform="translate(-38.000000, -2.000000)" fill="">
            <path d="M42.5,2.49538898 C42.5,2.2217932 42.7319336,2 43,2 C43.2761424,2 43.5,2.2157526 43.5,2.49538898 L43.5,4.50461102 C43.5,4.7782068 43.2680664,5 43,5 C42.7238576,5 42.5,4.7842474 42.5,4.50461102 L42.5,2.49538898 Z M45.8316876,3.46120561 C46.025149,3.26774418 46.3459823,3.27491452 46.5355339,3.46446609 C46.7307961,3.65972824 46.7365272,3.97057961 46.5387944,4.1683124 L45.1180599,5.58904692 C44.9245984,5.78250835 44.6037651,5.77533801 44.4142136,5.58578644 C44.2189514,5.39052429 44.2132203,5.07967292 44.4109531,4.88194014 L45.8316876,3.46120561 Z M47.504611,6.5 C47.7782068,6.5 48,6.73193359 48,7 C48,7.27614237 47.7842474,7.5 47.504611,7.5 L45.495389,7.5 C45.2217932,7.5 45,7.26806641 45,7 C45,6.72385763 45.2157526,6.5 45.495389,6.5 L47.504611,6.5 Z M46.5387944,9.8316876 C46.7322558,10.025149 46.7250855,10.3459823 46.5355339,10.5355339 C46.3402718,10.7307961 46.0294204,10.7365272 45.8316876,10.5387944 L44.4109531,9.11805986 C44.2174916,8.92459843 44.224662,8.60376514 44.4142136,8.41421356 C44.6094757,8.21895142 44.9203271,8.2132203 45.1180599,8.41095308 L46.5387944,9.8316876 Z M43.5,11.504611 C43.5,11.7782068 43.2680664,12 43,12 C42.7238576,12 42.5,11.7842474 42.5,11.504611 L42.5,9.49538898 C42.5,9.2217932 42.7319336,9 43,9 C43.2761424,9 43.5,9.2157526 43.5,9.49538898 L43.5,11.504611 Z M40.1683124,10.5387944 C39.974851,10.7322558 39.6540177,10.7250855 39.4644661,10.5355339 C39.2692039,10.3402718 39.2634728,10.0294204 39.4612056,9.8316876 L40.8819401,8.41095308 C41.0754016,8.21749165 41.3962349,8.22466199 41.5857864,8.41421356 C41.7810486,8.60947571 41.7867797,8.92032708 41.5890469,9.11805986 L40.1683124,10.5387944 Z M38.495389,7.5 C38.2217932,7.5 38,7.26806641 38,7 C38,6.72385763 38.2157526,6.5 38.495389,6.5 L40.504611,6.5 C40.7782068,6.5 41,6.73193359 41,7 C41,7.27614237 40.7842474,7.5 40.504611,7.5 L38.495389,7.5 Z M39.4612056,4.1683124 C39.2677442,3.97485096 39.2749145,3.65401767 39.4644661,3.46446609 C39.6597282,3.26920395 39.9705796,3.26347283 40.1683124,3.46120561 L41.5890469,4.88194014 C41.7825084,5.07540157 41.775338,5.39623486 41.5857864,5.58578644 C41.3905243,5.78104858 41.0796729,5.7867797 40.8819401,5.58904692 L39.4612056,4.1683124 Z" id="Spinner"></path>
        </g>
    </g>
</svg>